@startuml

skinparam monochrome true
hide empty members
hide circle

class JmeterDsl {
  ..
}

package core {

  interface DslTestElement {
    HashTree buildTreeUnder(HashTree parent, BuildTreeContext context)
    void showInGui()
  }

  class BuildTreeContext {
    HashTree root
    Map<String, Object> entries
    Map<DslVisualizer, Supplier<Component>> visualizers
  }

  class DslTestPlan {
    TestPlanStats run()
    TestPlanStats runIn(DslJmeterEngine engine)
    void saveAsJmx(String filePath)
    {static} DslTestPlan fromJmx(String filePath)
  }

  interface TestPlanChild extends DslTestElement

  interface DslJmeterEngine {
    TestPlanStats run(DslTestPlan testPlan)
  }

  package testelements {

    abstract class BaseTestElement implements DslTestElement {
      String name
      Class guiClass
      TestElement buildTestElement()
    }

    abstract class TestElementContainer extends BaseTestElement {
      void addChildren(DslTestElement[] children)
    }

    abstract class TestPlanSingletonChildElement extends BaseTestElement implements TestPlanChild {
      boolean enabled
    }

    abstract class DslSampler extends TestElementContainer

    interface SamplerChild extends DslTestElement

    interface MultiLevelTestElement extends TestPlanChild, SamplerChild

    abstract class DslJsr223TestElement extends BaseTestElement {
      String language
      abstract DslJsr223TestElement buildJsr223TestElement()
    }

    abstract class DslScopedTestElement extends BaseTestElement {
      Scope scope;
      String scopeVariable
    }

    enum Scope {
      ALL
      MAIN_SAMPLE
      SUB_SAMPLES
    }

    DslScopedTestElement ..> Scope
    TestElementContainer -up-> "*" DslTestElement
    DslJsr223TestElement --> DslScriptBuilder
    DslSampler ..> SamplerChild

  }

  package threadgroups {

    abstract class BaseThreadGroup extends TestElementContainer implements TestPlanChild {
      SampleErrorAction sampleErrorAction
    }

    interface ThreadGroupChild extends DslTestElement

    enum SampleErrorAction {
      CONTINUE,
      START_NEXT_ITERATION,
      STOP_THREAD,
      STOP_TEST,
      STOP_TEST_NOW
    }

    class DslThreadGroup extends BaseThreadGroup {
      List<Stage> stages
    }

    class Stage {
        int threads
        int iterations
        Duration duration
    }

    class RpsThreadGroup extends BaseThreadGroup {
      List<TimerSchedule> schedules
      EventType counting
      int initThreads
      int maxThreads
      double spareThreads
    }

    class TimerSchedule {
      double fromRps
      double toRps
      Duration duration
    }

    enum EventType {
      REQUESTS
      ITERATIONS
    }

    abstract class DslSimpleThreadGroup extends BaseThreadGroup {
      int iterations
      int threads
    }

    class DslSetupThreadGroup extends DslSimpleThreadGroup
    class DslTeardownThreadGroup extends DslSimpleThreadGroup

    BaseThreadGroup ..> SampleErrorAction
    DslThreadGroup ..> ThreadGroupChild
    DslThreadGroup ..> Stage
    RpsThreadGroup ..> TimerSchedule
    RpsThreadGroup ..> EventType

  }

  package engines {

    class EmbeddedJmeterEngine implements DslJmeterEngine

    class JmeterEnvironment {
      File homeDir
    }

    class DistributedJmeterEngine extends EmbeddedJmeterEngine

    EmbeddedJmeterEngine ..> JmeterEnvironment

  }

  package configs {

    abstract class DslConfigElement extends BaseTestElement implements MultiLevelTestElement

    class DslCsvDataSet extends DslConfigElement {
      String file
      String delimiter
      String encoding
      String[] variableNames
      boolean ignoreFirstLine
      boolean stopThread
      Sharing shareMode
    }

    enum Sharing {
      ALL_THREADS
      THREAD_GROUP
      THREAD
    }

    DslCsvDataSet ..> Sharing

  }

  package controllers {

    abstract class DslController extends TestElementContainer implements ThreadGroupChild

    class DslTransactionController extends DslController

    class PercentController extends DslController {
      float percent
    }

    class DslIfController extends DslController

    class DslForEachController extends DslController

    class DslWhileController extends DslController

    class ForLoopController extends DslController {
      int count
    }

  }

  package preprocessors {

    class DslJsr223PreProcessor extends DslJsr223TestElement implements MultiLevelTestElement

    interface PreProcessorScript extends Jsr223Script

    class PreProcessorVars extends Jsr223ScriptVars

  }

  package postprocessors {

    class DslJsr223PostProcessor extends DslJsr223TestElement implements MultiLevelTestElement

    interface PostProcessorScript extends Jsr223Script

    class PostProcessorVars extends Jsr223ScriptVars

    abstract class DslVariableExtractor extends DslScopedTestElement implements MultiLevelTestElement {
      String varName
      int matchNumber
      String defaultValue
    }

    class DslRegexExtractor extends DslVariableExtractor {
      String regex
      String template
      ExtractorTargetField fieldToCheck
    }

    enum ExtractorTargetField {
      RESPONSE_BODY
      RESPONSE_BODY_UNESCAPED
      RESPONSE_BODY_AS_DOCUMENT
      RESPONSE_HEADERS
      REQUEST_HEADERS
      REQUEST_URL
      RESPONSE_CODE
      RESPONSE_MESSAGE
    }

    class DslBoundaryExtractor extends DslVariableExtractor {
      String leftBoundary
      String rightBoundary
      ExtractorTargetField fieldToCheck
    }

    DslRegexExtractor ..> ExtractorTargetField
    DslBoundaryExtractor ..> ExtractorTargetField

    class DslJsonExtractor extends DslVariableExtractor {
      String jmesPath
    }

  }

  package assertions {

    class DslResponseAssertion extends DslScopedTestElement {
      AssertionTargetField fieldToTest
      boolean ignoreStatus
      String[] testStrings
      TestStringStrategy testStrategy
      boolean invertCheck
      boolean anyMatch
    }

    enum AssertionTargetField {
      RESPONSE_BODY
      RESPONSE_BODY_AS_DOCUMENT
      RESPONSE_CODE
      RESPONSE_MESSAGE
      RESPONSE_HEADERS
      REQUEST_HEADERS
      REQUEST_URL
      REQUEST_BODY
    }

    enum TestStringStrategy {
      SUBSTRING
      EQUALS
      CONTAINS_REGEX
      MATCHES_REGEX
    }

    DslResponseAssertion ..> AssertionTargetField
    DslResponseAssertion ..> TestStringStrategy

  }

  package timers {

    class DslUniformRandomTimer extends BaseTestElement implements MultiLevelTestElement {
      long minimumMillis
      long maximumMillis
    }

  }

  package listeners {

    class JtlWriter extends BaseTestElement implements MultiLevelTestElement {
      String jtlFilePath
    }

    class ResponseFileSaver extends BaseTestElement implements MultiLevelTestElement {
      String fileNamePrefix
    }

    class HtmlReporter extends BaseTestElement implements MultiLevelTestElement {
      File reportDirectory
    }

    abstract class DslBackendListener extends BaseTestElement implements MultiLevelTestElement {
      String url
      Class listenerClass
      int queueSize
      Arguments buildListenerArguments()
    }

    class InfluxDbBackendListener extends DslBackendListener {
      String token
      String title
    }

    class DslViewResultsTree extends DslVisualizer {
      int resultsLimit
    }

    abstract class DslVisualizer extends BaseTestElement implements MultiLevelTestElement

  }

  package util {

    class DslScriptBuilder {
      int scriptId
      DslScript script
      Class varsClass
      Map<String, String> varsNameMapping
      String scriptString
      String build()
      String buildAsProperty()
    }

    interface DslScript {
      Object run(DslScriptVars vars)
    }

    abstract class DslScriptVars {
      SampleResult prev
      JMeterContext ctx
      JMeterVariables vars
      Properties props
      Sampler sampler
      Logger log
    }

    class PropertyScriptBuilder extends DslScriptBuilder

    interface PropertyScript extends DslScript

    class PropertyScriptVars extends DslScriptVars

    interface Jsr223Script extends DslScript {
      void run(Jsr223ScriptVars vars)
    }

    abstract class Jsr223ScriptVars extends DslScriptVars {
      String Label
    }

  }

  DslTestPlan ..> TestPlanChild
  DslTestPlan ..> EmbeddedJmeterEngine
  DslTestElement ..> BuildTreeContext
  DslTestPlan -up-|> TestElementContainer
  DslSampler .up.|> ThreadGroupChild
  MultiLevelTestElement .up.|> ThreadGroupChild
  DslIfController --> PropertyScriptBuilder
  DslWhileController --> PropertyScriptBuilder

}

package http {

  class DslHttpSampler extends DslSampler {
    String url
    HttpMethod method
    String body
  }

  class HttpHeaders extends BaseTestElement implements MultiLevelTestElement {
    Map<String, String> headers
  }

  class DslCacheManager extends TestPlanSingletonChildElement

  class DslCookieManager extends TestPlanSingletonChildElement

  class DslHttpDefaults extends DslConfigElement {
  }

  DslHttpSampler --> HttpHeaders

}

package java {

  class DslJsr223Sampler extends DslJsr223TestElement implements ThreadGroupChild

  DslJsr223Sampler ..> SamplerChild

}

JmeterDsl -[hidden]- core

@enduml